<?xml version="1.0" encoding="UTF-8"?>
<svg width="32" height="32" viewBox="0 0 32 32" fill="none" xmlns="http://www.w3.org/2000/svg">
  <!-- Version simplifiée pour favicon -->
  <circle cx="16" cy="16" r="15" stroke="#047857" stroke-width="2"/>
  
  <g transform="translate(8, 8) scale(0.5)">
    <!-- Livre -->
    <path d="M20 60C20 55 25 50 40 50C55 50 60 55 60 60V90C60 95 55 100 40 100C25 100 20 95 20 90V60Z" fill="#047857"/>
    <path d="M40 50C25 50 20 55 20 60C20 65 25 70 40 70C55 70 60 65 60 60C60 55 55 50 40 50Z" fill="#059669"/>
    
    <!-- Feuille -->
    <path d="M70 30C90 30 100 50 100 70C100 90 90 100 70 100C70 80 60 70 40 70C40 50 50 30 70 30Z" fill="#059669"/>
    
    <!-- Mains -->
    <path d="M30 80C40 70 50 70 60 80C70 90 80 90 90 80" stroke="#047857" stroke-width="8" stroke-linecap="round"/>
  </g>
</svg>